<svg xmlns="http://www.w3.org/2000/svg" xmlns:xlink="http://www.w3.org/1999/xlink" width="500" zoomAndPan="magnify" viewBox="0 0 375 374.999991" height="500" preserveAspectRatio="xMidYMid meet" version="1.0"><defs><g/><clipPath id="0b021be52c"><path d="M 67 117.660156 L 308 117.660156 L 308 185.160156 L 67 185.160156 Z M 67 117.660156 " clip-rule="nonzero"/></clipPath><clipPath id="fc8173abe4"><path d="M 78 133 L 298 133 L 298 185.160156 L 78 185.160156 Z M 78 133 " clip-rule="nonzero"/></clipPath></defs><rect x="-37.5" width="450" fill="#ffffff" y="-37.499999" height="449.999989" fill-opacity="1"/><rect x="-37.5" width="450" fill="#ffffff" y="-37.499999" height="449.999989" fill-opacity="1"/><g clip-path="url(#0b021be52c)"><path fill="#ffbd59" d="M 170.816406 136.476562 L 160.175781 146.257812 C 159.808594 146.597656 159.589844 147.066406 159.570312 147.566406 L 159.464844 150.125 C 159.445312 150.507812 159.277344 150.871094 158.992188 151.128906 L 155.128906 154.644531 C 155 154.761719 154.828125 154.824219 154.65625 154.820312 L 152.125 154.757812 C 151.820312 154.75 151.527344 154.878906 151.324219 155.105469 L 147.511719 159.441406 C 147.300781 159.679688 147.324219 160.042969 147.5625 160.25 L 155.035156 166.800781 C 155.261719 167 155.605469 166.988281 155.816406 166.777344 L 160.519531 162.074219 C 160.75 161.839844 160.871094 161.515625 160.832031 161.1875 C 160.742188 160.449219 161.203125 159.875 161.203125 159.875 C 162.0625 158.929688 162.761719 158.371094 163.785156 157.78125 C 169.449219 154.992188 174.289062 159.832031 174.289062 159.832031 L 202.265625 185.511719 L 158.371094 185.511719 L 117.160156 137.300781 L 74.441406 185.511719 L 67.054688 185.511719 L 74.441406 177.472656 L 74.441406 155.566406 L 83.546875 155.566406 L 83.546875 167.136719 L 115.953125 130.871094 Z M 307.941406 185.511719 L 301.703125 185.511719 L 266.589844 147.6875 L 229.507812 185.511719 L 215.722656 185.511719 C 216.128906 184.703125 177.949219 153.332031 179.074219 145.554688 C 180.523438 135.546875 194.445312 134.507812 194.445312 134.507812 C 186.625 130.621094 175.464844 133.25 175.464844 133.25 L 187.363281 122.089844 L 220.644531 117.660156 L 243.78125 144.570312 L 266.753906 141.125 Z M 239.1875 144.898438 L 220.726562 123.15625 L 196.933594 152.53125 L 191.601562 152.777344 L 202.265625 163.03125 L 222.285156 146.621094 Z M 239.1875 144.898438 " fill-opacity="1" fill-rule="nonzero"/></g><g clip-path="url(#fc8173abe4)"><path fill="#a2a2a3" d="M 297.191406 185.511719 L 293.828125 185.511719 L 264.292969 154.292969 L 266.136719 152.242188 Z M 265.277344 170.742188 L 258.878906 170.742188 L 258.878906 177.140625 L 265.277344 177.140625 Z M 273.863281 170.742188 L 267.464844 170.742188 L 267.464844 177.140625 L 273.863281 177.140625 Z M 265.277344 179.113281 L 258.878906 179.113281 L 258.878906 185.511719 L 265.277344 185.511719 Z M 273.863281 179.113281 L 267.464844 179.113281 L 267.464844 185.511719 L 273.863281 185.511719 Z M 114.480469 167.707031 L 106.765625 167.707031 L 106.765625 175.421875 L 114.480469 175.421875 Z M 124.832031 167.707031 L 117.117188 167.707031 L 117.117188 175.421875 L 124.832031 175.421875 Z M 114.480469 177.796875 L 106.765625 177.796875 L 106.765625 185.511719 L 114.480469 185.511719 Z M 124.832031 177.796875 L 117.117188 177.796875 L 117.117188 185.511719 L 124.832031 185.511719 Z M 221.746094 133.359375 L 218.160156 133.359375 L 218.160156 136.945312 L 221.746094 136.945312 Z M 226.558594 133.359375 L 222.972656 133.359375 L 222.972656 136.945312 L 226.558594 136.945312 Z M 221.746094 138.046875 L 218.160156 138.046875 L 218.160156 141.632812 L 221.746094 141.632812 Z M 226.558594 138.046875 L 222.972656 138.046875 L 222.972656 141.632812 L 226.558594 141.632812 Z M 117.121094 142.164062 L 78.761719 185.511719 L 81.933594 185.511719 L 118.90625 144.179688 Z M 117.121094 142.164062 " fill-opacity="1" fill-rule="nonzero"/></g><g fill="#3a3a3c" fill-opacity="1"><g transform="translate(38.4308, 228.127749)"><g><path d="M 2.671875 0 L 10.1875 0 C 10.1875 -4.234375 10.234375 -9.09375 10.234375 -14.078125 L 10.359375 -25.46875 L 10.90625 -25.46875 L 17.9375 0 L 26.34375 0 L 33.328125 -25.46875 L 33.875 -25.46875 C 33.921875 -22.078125 33.96875 -17.59375 33.96875 -14.125 C 34.046875 -9.140625 34.046875 -4.234375 34.046875 0 L 41.578125 0 C 41.328125 -7.015625 41.203125 -14.71875 41.203125 -22.125 C 41.203125 -25.5 41.234375 -28.890625 41.234375 -32.265625 L 28.765625 -32.265625 L 22.453125 -7.828125 L 21.828125 -7.828125 L 15.484375 -32.265625 L 3 -32.265625 C 3 -29.90625 3.09375 -24.78125 3.09375 -22.125 C 3.09375 -14.71875 2.875 -7.0625 2.671875 0 Z M 2.671875 0 "/></g></g></g><g fill="#3a3a3c" fill-opacity="1"><g transform="translate(84.234261, 228.127749)"><g><path d="M 31.71875 0 C 29.0625 -9.640625 25 -23.5625 22.796875 -32.265625 L 8.796875 -32.265625 C 6.640625 -23.4375 2.453125 -9.171875 -0.046875 0 L 8.453125 0 C 9.015625 -1.859375 9.6875 -4.359375 10.40625 -7.1875 C 12.09375 -7.1875 13.828125 -7.1875 15.78125 -7.1875 L 21.40625 -7.1875 C 22.03125 -4.78125 22.625 -2.40625 23.09375 0 Z M 11.59375 -11.765625 C 12.8125 -16.703125 14.21875 -22.296875 15.5625 -27.578125 L 15.90625 -27.578125 C 17.046875 -22.203125 18.609375 -16.96875 20.140625 -11.765625 Z M 11.59375 -11.765625 "/></g></g></g><g fill="#3a3a3c" fill-opacity="1"><g transform="translate(117.476733, 228.127749)"><g><path d="M 2.703125 0 L 10.28125 0 C 10.234375 -5.578125 10.1875 -11.671875 10.1875 -18.609375 C 10.1875 -19.546875 9.890625 -23.8125 9.765625 -24.828125 L 10.359375 -24.828125 C 11 -22.71875 11.796875 -20.34375 13.203125 -16.921875 L 21.734375 0 L 32.984375 0 C 32.90625 -5.84375 32.859375 -11.328125 32.859375 -16.5 C 32.859375 -21.703125 32.90625 -26.984375 32.984375 -32.265625 L 25.328125 -32.265625 C 25.421875 -27.828125 25.546875 -19.125 25.546875 -13.109375 C 25.546875 -11.296875 25.765625 -9.34375 25.96875 -7.609375 L 25.375 -7.609375 C 24.953125 -9.015625 24.03125 -11.171875 23.21875 -13.203125 L 13.953125 -32.265625 L 2.671875 -32.265625 C 2.75 -28 2.828125 -23.21875 2.828125 -19.15625 C 2.828125 -10.40625 2.75 -4.90625 2.703125 0 Z M 2.703125 0 "/></g></g></g><g fill="#3a3a3c" fill-opacity="1"><g transform="translate(154.694743, 228.127749)"><g/></g></g><g fill="#3a3a3c" fill-opacity="1"><g transform="translate(166.410139, 228.127749)"><g><path d="M 2.671875 0 L 18.015625 0 C 27.203125 0 31.46875 -2.078125 31.46875 -8.796875 C 31.46875 -13.828125 28.59375 -15.859375 19.921875 -16.328125 L 19.921875 -16.921875 C 28.25 -17.390625 30.703125 -19.703125 30.703125 -24.453125 C 30.703125 -30.96875 25.765625 -32.265625 17.34375 -32.265625 L 2.671875 -32.265625 C 2.75 -27.875 2.875 -20.34375 2.875 -16.109375 C 2.875 -12.6875 2.75 -3.34375 2.671875 0 Z M 10.875 -18.78125 L 10.875 -27.03125 L 16.40625 -27.03125 C 20.171875 -27.03125 22.203125 -26.015625 22.203125 -22.75 C 22.203125 -19.84375 20.390625 -18.78125 16.40625 -18.78125 Z M 10.875 -5.875 L 10.875 -14.375 L 16.40625 -14.375 C 20.890625 -14.375 23.140625 -13.359375 23.140625 -10.28125 C 23.140625 -7.015625 21.234375 -5.875 16.703125 -5.875 Z M 10.875 -5.875 "/></g></g></g><g fill="#3a3a3c" fill-opacity="1"><g transform="translate(200.921409, 228.127749)"><g><path d="M 31.71875 0 C 29.0625 -9.640625 25 -23.5625 22.796875 -32.265625 L 8.796875 -32.265625 C 6.640625 -23.4375 2.453125 -9.171875 -0.046875 0 L 8.453125 0 C 9.015625 -1.859375 9.6875 -4.359375 10.40625 -7.1875 C 12.09375 -7.1875 13.828125 -7.1875 15.78125 -7.1875 L 21.40625 -7.1875 C 22.03125 -4.78125 22.625 -2.40625 23.09375 0 Z M 11.59375 -11.765625 C 12.8125 -16.703125 14.21875 -22.296875 15.5625 -27.578125 L 15.90625 -27.578125 C 17.046875 -22.203125 18.609375 -16.96875 20.140625 -11.765625 Z M 11.59375 -11.765625 "/></g></g></g><g fill="#3a3a3c" fill-opacity="1"><g transform="translate(234.163873, 228.127749)"><g><path d="M 2.671875 0 L 11 0 C 11 -2.453125 10.953125 -8.671875 11 -11.625 L 16.703125 -11.625 C 20.265625 -11.625 21.3125 -10.578125 22.078125 -7.3125 C 22.296875 -4.953125 22.96875 -2.109375 23.390625 0 L 32.3125 0 C 31.71875 -1.65625 30.703125 -5.921875 30.5 -7.53125 C 29.6875 -12.015625 27.203125 -14 20.765625 -14.171875 L 20.765625 -14.765625 C 27.453125 -14.84375 30.875 -17.21875 30.875 -23.5625 C 30.875 -30.53125 26.140625 -32.265625 17.46875 -32.265625 L 2.671875 -32.265625 C 2.75 -27.5 2.921875 -20.984375 2.921875 -16.078125 C 2.921875 -11.203125 2.75 -4.859375 2.671875 0 Z M 10.90625 -16.921875 L 10.90625 -26.609375 L 16.109375 -26.609375 C 20.21875 -26.609375 22.375 -25.59375 22.375 -21.703125 C 22.375 -18.140625 20.390625 -16.921875 16.109375 -16.921875 Z M 10.90625 -16.921875 "/></g></g></g><g fill="#3a3a3c" fill-opacity="1"><g transform="translate(269.520987, 228.127749)"><g><path d="M 31.71875 0 C 29.0625 -9.640625 25 -23.5625 22.796875 -32.265625 L 8.796875 -32.265625 C 6.640625 -23.4375 2.453125 -9.171875 -0.046875 0 L 8.453125 0 C 9.015625 -1.859375 9.6875 -4.359375 10.40625 -7.1875 C 12.09375 -7.1875 13.828125 -7.1875 15.78125 -7.1875 L 21.40625 -7.1875 C 22.03125 -4.78125 22.625 -2.40625 23.09375 0 Z M 11.59375 -11.765625 C 12.8125 -16.703125 14.21875 -22.296875 15.5625 -27.578125 L 15.90625 -27.578125 C 17.046875 -22.203125 18.609375 -16.96875 20.140625 -11.765625 Z M 11.59375 -11.765625 "/></g></g></g><g fill="#3a3a3c" fill-opacity="1"><g transform="translate(302.763462, 228.127749)"><g><path d="M 2.671875 0 L 11 0 C 11 -2.453125 10.953125 -8.671875 11 -11.625 L 16.703125 -11.625 C 20.265625 -11.625 21.3125 -10.578125 22.078125 -7.3125 C 22.296875 -4.953125 22.96875 -2.109375 23.390625 0 L 32.3125 0 C 31.71875 -1.65625 30.703125 -5.921875 30.5 -7.53125 C 29.6875 -12.015625 27.203125 -14 20.765625 -14.171875 L 20.765625 -14.765625 C 27.453125 -14.84375 30.875 -17.21875 30.875 -23.5625 C 30.875 -30.53125 26.140625 -32.265625 17.46875 -32.265625 L 2.671875 -32.265625 C 2.75 -27.5 2.921875 -20.984375 2.921875 -16.078125 C 2.921875 -11.203125 2.75 -4.859375 2.671875 0 Z M 10.90625 -16.921875 L 10.90625 -26.609375 L 16.109375 -26.609375 C 20.21875 -26.609375 22.375 -25.59375 22.375 -21.703125 C 22.375 -18.140625 20.390625 -16.921875 16.109375 -16.921875 Z M 10.90625 -16.921875 "/></g></g></g><g fill="#000000" fill-opacity="1"><g transform="translate(110.51104, 253.372704)"><g><path d="M 6.765625 -12.515625 C 3.1875 -12.515625 0.4375 -10.046875 0.4375 -6.3125 C 0.4375 -2.40625 3 0.1875 6.8125 0.1875 C 8.703125 0.1875 10.8125 -0.71875 11.875 -2.203125 C 12.828125 -3.515625 11.15625 -4.625 10.109375 -3.359375 C 9.375 -2.46875 8.0625 -1.78125 6.84375 -1.78125 C 4.328125 -1.78125 2.671875 -3.578125 2.671875 -6.3125 C 2.671875 -8.84375 4.296875 -10.546875 6.75 -10.546875 C 7.953125 -10.546875 9.015625 -10.328125 9.984375 -9.28125 C 10.984375 -8.203125 12.625 -9.421875 11.59375 -10.59375 C 10.328125 -12.015625 8.671875 -12.515625 6.765625 -12.515625 Z M 6.765625 -12.515625 "/></g></g></g><g fill="#000000" fill-opacity="1"><g transform="translate(123.930309, 253.372704)"><g><path d="M 13.0625 -6.15625 C 13.0625 -9.96875 10.546875 -12.515625 6.765625 -12.515625 C 2.984375 -12.515625 0.421875 -9.96875 0.421875 -6.15625 C 0.421875 -2.34375 2.984375 0.1875 6.765625 0.1875 C 10.546875 0.1875 13.0625 -2.34375 13.0625 -6.15625 Z M 6.765625 -1.78125 C 4.328125 -1.78125 2.703125 -3.546875 2.703125 -6.15625 C 2.703125 -8.78125 4.328125 -10.546875 6.765625 -10.546875 C 9.1875 -10.546875 10.796875 -8.78125 10.796875 -6.15625 C 10.796875 -3.546875 9.1875 -1.78125 6.765625 -1.78125 Z M 6.765625 -1.78125 "/></g></g></g><g fill="#000000" fill-opacity="1"><g transform="translate(138.857771, 253.372704)"><g><path d="M 9.328125 -11.375 L 9.328125 -5.140625 L 9.40625 -3.84375 L 3.328125 -11.734375 C 3.015625 -12.125 2.6875 -12.328125 2.203125 -12.328125 C 1.59375 -12.328125 1.03125 -11.921875 1.03125 -11.140625 L 1.03125 -1.03125 C 1.03125 -0.3125 1.59375 0 2.1875 0 C 2.75 0 3.328125 -0.3125 3.328125 -1.03125 L 3.328125 -7.09375 L 3.25 -8.1875 L 9.171875 -0.5625 C 9.421875 -0.234375 9.890625 0 10.328125 0 C 10.96875 0 11.625 -0.390625 11.625 -1.15625 L 11.625 -11.375 C 11.625 -12.03125 11.078125 -12.328125 10.5 -12.328125 C 9.921875 -12.328125 9.328125 -12 9.328125 -11.375 Z M 9.328125 -11.375 "/></g></g></g><g fill="#000000" fill-opacity="1"><g transform="translate(152.741099, 253.372704)"><g><path d="M 0.140625 -2.921875 C 0.796875 -0.5 3.875 0.1875 5.875 0.1875 C 8.296875 0.1875 11.6875 -0.65625 11.6875 -3.734375 C 11.6875 -6.8125 8.78125 -6.921875 6.09375 -7.171875 C 4.203125 -7.3125 2.578125 -7.46875 2.578125 -8.71875 C 2.578125 -10.078125 4.65625 -10.453125 5.703125 -10.453125 C 6.890625 -10.453125 8.625 -10.296875 9.09375 -9.09375 C 9.25 -8.75 9.65625 -8.546875 10.078125 -8.546875 C 10.734375 -8.546875 11.390625 -9.09375 11.1875 -9.8125 C 10.265625 -11.9375 7.703125 -12.515625 5.6875 -12.515625 C 3.265625 -12.515625 0.25 -11.390625 0.25 -8.75 C 0.25 -5.796875 3.25 -5.4375 5.875 -5.21875 C 7.609375 -5.09375 9.359375 -4.9375 9.359375 -3.71875 C 9.359375 -2.1875 7.234375 -1.84375 5.875 -1.84375 C 4.578125 -1.84375 2.8125 -2.125 2.375 -3.390625 C 2.28125 -3.890625 1.8125 -4.140625 1.3125 -4.140625 C 0.640625 -4.140625 -0.0625 -3.671875 0.140625 -2.921875 Z M 0.140625 -2.921875 "/></g></g></g><g fill="#000000" fill-opacity="1"><g transform="translate(165.754318, 253.372704)"><g><path d="M 10.015625 -12.328125 L 0.59375 -12.328125 C -0.15625 -12.328125 -0.484375 -11.8125 -0.484375 -11.3125 C -0.484375 -10.828125 -0.15625 -10.328125 0.59375 -10.328125 L 4.171875 -10.328125 L 4.171875 -1.03125 C 4.171875 -0.328125 4.765625 0 5.296875 0 C 5.796875 0 6.4375 -0.328125 6.4375 -1.03125 L 6.421875 -10.328125 L 10.015625 -10.328125 C 10.75 -10.328125 11.15625 -10.828125 11.15625 -11.3125 C 11.15625 -11.8125 10.75 -12.328125 10.015625 -12.328125 Z M 10.015625 -12.328125 "/></g></g></g><g fill="#000000" fill-opacity="1"><g transform="translate(177.665391, 253.372704)"><g><path d="M 11.15625 -1.890625 L 8.84375 -4.328125 C 10.8125 -4.890625 11.78125 -6.328125 11.78125 -8.140625 C 11.78125 -10.46875 10.015625 -12.328125 6.5625 -12.328125 L 2.25 -12.328125 C 1.59375 -12.328125 1.125 -11.921875 1.125 -11.3125 L 1.125 -0.984375 C 1.125 -0.34375 1.65625 0 2.25 0 C 2.78125 0 3.359375 -0.34375 3.359375 -1 L 3.359375 -4.0625 L 6.28125 -4.0625 L 9.75 -0.375 C 10.71875 0.671875 12.34375 -0.65625 11.15625 -1.890625 Z M 3.359375 -5.9375 L 3.359375 -10.375 L 6.578125 -10.375 C 8.390625 -10.375 9.5 -9.40625 9.515625 -8.125 C 9.5625 -6.9375 8.640625 -5.9375 6.578125 -5.9375 Z M 3.359375 -5.9375 "/></g></g></g><g fill="#000000" fill-opacity="1"><g transform="translate(190.891298, 253.372704)"><g><path d="M 10.484375 -11.296875 L 10.484375 -5.4375 C 10.484375 -3.28125 9.046875 -1.84375 6.90625 -1.84375 C 4.796875 -1.84375 3.390625 -3.28125 3.390625 -5.4375 L 3.390625 -11.328125 C 3.390625 -12.015625 2.8125 -12.328125 2.21875 -12.328125 C 1.640625 -12.328125 1.109375 -12 1.109375 -11.359375 L 1.109375 -5.4375 C 1.109375 -2.0625 3.421875 0.1875 6.921875 0.1875 C 10.421875 0.1875 12.75 -2.0625 12.75 -5.4375 L 12.75 -11.3125 C 12.75 -12 12.203125 -12.328125 11.625 -12.328125 C 11.046875 -12.328125 10.484375 -12 10.484375 -11.296875 Z M 10.484375 -11.296875 "/></g></g></g><g fill="#000000" fill-opacity="1"><g transform="translate(206.089468, 253.372704)"><g><path d="M 6.765625 -12.515625 C 3.1875 -12.515625 0.4375 -10.046875 0.4375 -6.3125 C 0.4375 -2.40625 3 0.1875 6.8125 0.1875 C 8.703125 0.1875 10.8125 -0.71875 11.875 -2.203125 C 12.828125 -3.515625 11.15625 -4.625 10.109375 -3.359375 C 9.375 -2.46875 8.0625 -1.78125 6.84375 -1.78125 C 4.328125 -1.78125 2.671875 -3.578125 2.671875 -6.3125 C 2.671875 -8.84375 4.296875 -10.546875 6.75 -10.546875 C 7.953125 -10.546875 9.015625 -10.328125 9.984375 -9.28125 C 10.984375 -8.203125 12.625 -9.421875 11.59375 -10.59375 C 10.328125 -12.015625 8.671875 -12.515625 6.765625 -12.515625 Z M 6.765625 -12.515625 "/></g></g></g><g fill="#000000" fill-opacity="1"><g transform="translate(219.508741, 253.372704)"><g><path d="M 10.015625 -12.328125 L 0.59375 -12.328125 C -0.15625 -12.328125 -0.484375 -11.8125 -0.484375 -11.3125 C -0.484375 -10.828125 -0.15625 -10.328125 0.59375 -10.328125 L 4.171875 -10.328125 L 4.171875 -1.03125 C 4.171875 -0.328125 4.765625 0 5.296875 0 C 5.796875 0 6.4375 -0.328125 6.4375 -1.03125 L 6.421875 -10.328125 L 10.015625 -10.328125 C 10.75 -10.328125 11.15625 -10.828125 11.15625 -11.3125 C 11.15625 -11.8125 10.75 -12.328125 10.015625 -12.328125 Z M 10.015625 -12.328125 "/></g></g></g><g fill="#000000" fill-opacity="1"><g transform="translate(231.41982, 253.372704)"><g><path d="M 0.875 -11.28125 L 0.875 -0.984375 C 0.875 -0.3125 1.40625 0 2 0 C 2.546875 0 3.140625 -0.328125 3.140625 -0.984375 L 3.140625 -11.28125 C 3.140625 -12 2.546875 -12.328125 2 -12.328125 C 1.40625 -12.328125 0.875 -12 0.875 -11.28125 Z M 0.875 -11.28125 "/></g></g></g><g fill="#000000" fill-opacity="1"><g transform="translate(236.195966, 253.372704)"><g><path d="M 13.0625 -6.15625 C 13.0625 -9.96875 10.546875 -12.515625 6.765625 -12.515625 C 2.984375 -12.515625 0.421875 -9.96875 0.421875 -6.15625 C 0.421875 -2.34375 2.984375 0.1875 6.765625 0.1875 C 10.546875 0.1875 13.0625 -2.34375 13.0625 -6.15625 Z M 6.765625 -1.78125 C 4.328125 -1.78125 2.703125 -3.546875 2.703125 -6.15625 C 2.703125 -8.78125 4.328125 -10.546875 6.765625 -10.546875 C 9.1875 -10.546875 10.796875 -8.78125 10.796875 -6.15625 C 10.796875 -3.546875 9.1875 -1.78125 6.765625 -1.78125 Z M 6.765625 -1.78125 "/></g></g></g><g fill="#000000" fill-opacity="1"><g transform="translate(251.123432, 253.372704)"><g><path d="M 9.328125 -11.375 L 9.328125 -5.140625 L 9.40625 -3.84375 L 3.328125 -11.734375 C 3.015625 -12.125 2.6875 -12.328125 2.203125 -12.328125 C 1.59375 -12.328125 1.03125 -11.921875 1.03125 -11.140625 L 1.03125 -1.03125 C 1.03125 -0.3125 1.59375 0 2.1875 0 C 2.75 0 3.328125 -0.3125 3.328125 -1.03125 L 3.328125 -7.09375 L 3.25 -8.1875 L 9.171875 -0.5625 C 9.421875 -0.234375 9.890625 0 10.328125 0 C 10.96875 0 11.625 -0.390625 11.625 -1.15625 L 11.625 -11.375 C 11.625 -12.03125 11.078125 -12.328125 10.5 -12.328125 C 9.921875 -12.328125 9.328125 -12 9.328125 -11.375 Z M 9.328125 -11.375 "/></g></g></g><path stroke-linecap="butt" transform="matrix(0.75, 0.000000000000002597, -0.000000000000002597, 0.75, 283.512173, 243.622705)" fill="none" stroke-linejoin="miter" d="M -0.000605777 5.997852 L 32.837938 5.997852 " stroke="#a2a2a3" stroke-width="12" stroke-opacity="1" stroke-miterlimit="4"/><path stroke-linecap="butt" transform="matrix(0.75, 0, 0, 0.75, 66.859555, 243.622705)" fill="none" stroke-linejoin="miter" d="M -0.000240413 5.997852 L 32.838303 5.997852 " stroke="#a2a2a3" stroke-width="12" stroke-opacity="1" stroke-miterlimit="4"/></svg>